PathFileType	4	(X/Y/Z)	Patient4_TMGait_0pt6_02_right_05.trc.trc
DataRate	CameraRate	NumFrames	NumMarkers	Units	OrigDataRate	OrigDataStartFrame	OrigNumFrames
85.889570552147	85.889570552147	4	33	mm	85.889570552147	18	       141
Frame#	Time	Sacral			L.Shoulder			Chest			R.Shoulder			Neck			R.ASIS			L.ASIS			R.Thigh.Superior			R.Thigh.Lateral			R.Thigh.Inferior			R.Patella			L.Thigh.Superior			L.Thigh.Lateral			L.Thigh.Inferior			L.Patella			L.Shank.Superior			L.Shank.Lateral			L.Shank.Inferior			R.Shank.Superior			R.Shank.Lateral			R.Shank.Inferior			R.Heel			R.Midfoot.Superior			R.Midfoot.Lateral			R.Toe			L.Heel			L.Midfoot.Lateral			L.Midfoot.Superior			L.Toe			L.Elbow			L.Wrist			R.Elbow			R.Wrist			
		X1	Y1	Z1	X2	Y2	Z2	X3	Y3	Z3	X4	Y4	Z4	X5	Y5	Z5	X6	Y6	Z6	X7	Y7	Z7	X8	Y8	Z8	X9	Y9	Z9	X10	Y10	Z10	X11	Y11	Z11	X12	Y12	Z12	X13	Y13	Z13	X14	Y14	Z14	X15	Y15	Z15	X16	Y16	Z16	X17	Y17	Z17	X18	Y18	Z18	X19	Y19	Z19	X20	Y20	Z20	X21	Y21	Z21	X22	Y22	Z22	X23	Y23	Z23	X24	Y24	Z24	X25	Y25	Z25	X26	Y26	Z26	X27	Y27	Z27	X28	Y28	Z28	X29	Y29	Z29	X30	Y30	Z30	X31	Y31	Z31	X32	Y32	Z32	X33	Y33	Z33	

18	5.687928571429	684.269710847468	1008.947755594442	468.866642158020	891.389002930043	1436.345108067061	309.416697893939	977.076569583477	1358.764063412357	475.418984589025	880.515782771812	1430.859045682596	642.437202796524	859.834765834345	1491.428358518993	463.321978587083	902.572745912777	943.750808574446	601.224916844224	904.894960845866	954.788799600414	325.965226031580	978.093546515444	770.960260348956	571.335857582555	935.202484138340	648.862509546581	641.337640013430	1020.567055286482	611.442853887118	557.992058553813	1055.410225027085	529.125728857022	571.806543153807	913.068482929204	728.244691135434	364.278844700610	804.132864655983	629.904416925766	297.683688243520	861.169070981558	539.329916358000	370.121471424903	845.430276147285	471.746278379394	381.189122890084	812.311939073095	404.633874115772	372.042244070711	711.125173833938	301.744829908252	319.932940334543	740.960959188763	187.131608959594	395.680403948291	1040.836021257064	441.520534849084	581.259816973311	994.099887177543	326.133348747598	646.639657970374	1061.759243093896	242.274995288366	589.583085760083	971.286143651841	52.903804575470	561.646148898746	1132.111571050446	129.098656788460	596.781169659375	1058.331992023546	49.740434088432	632.179713469409	1259.690442338632	94.720398915536	618.599719383704	596.304415507434	39.348434660252	435.214212780620	670.442687559726	36.120511283620	355.479425782981	754.762707932331	95.219778582513	383.180231184544	882.432390543574	39.528425672842	353.606759211192	916.032423708898	1096.334660973794	168.386648211953	1164.649270112619	1069.320307283737	212.697576037926	743.915948780105	1103.322229132188	724.615793026705	737.330696999980	841.694812350695	728.432199798321	
19	5.699571428571	685.313901604735	1007.573507010936	470.453784180434	890.691139994004	1435.301006234997	310.396479042793	977.101919688317	1358.088590170046	476.154873150706	880.795799762648	1429.863044491308	643.470990343933	859.383942334620	1490.345892377727	464.348621623253	903.722175556927	942.454748218991	602.372449440784	905.880354435182	953.708476423186	327.193578831712	976.706926018040	766.794427310949	573.732818885507	930.874746092272	645.447337949627	643.195725774762	1015.925950902991	606.954853067186	560.104087916215	1049.524526356074	525.864942741657	573.432814435437	912.278068576184	726.628873745673	365.323115378179	802.482177182884	629.016786248873	298.751765419129	858.979307650374	537.970112602040	370.821307698027	842.711490048097	470.224298216928	381.788522978330	808.752312850382	403.465990552592	372.636877701733	706.369441676546	301.781898165087	320.376038957914	735.012026944638	186.715845709305	395.887853040792	1036.645257541365	438.504014600429	582.745770077876	991.318482152391	321.884629531651	646.791057511157	1061.448668036169	239.630298396911	590.051748731625	975.005945345139	49.035197448780	560.124984399474	1134.430314069903	127.356046953976	597.191767270679	1061.405968885787	46.950916770585	631.354469398417	1262.269564233092	94.506628076234	619.663872683003	589.300429810051	39.629692152697	435.217741525409	663.456496652391	36.276710883255	355.526686893731	747.860793166636	95.193866528954	383.219706194345	875.405584414282	39.384395775871	353.569913083501	916.703141284847	1094.709011635789	170.708497887603	1165.281344019433	1065.179518310291	214.246707145496	747.173794675419	1101.023938306646	726.137244294472	743.595149569989	839.328319127558	730.036580427858	
20	5.711214285714	686.503884444946	1006.141464403965	472.227475525691	889.825271172524	1434.233323489777	311.500371285601	977.088255364990	1357.489802928072	476.988432722080	881.015824194330	1428.856894145641	644.639192663413	858.886504714534	1489.254738125960	465.514644279176	905.084658436417	941.097089946922	603.624969443300	907.028127632695	952.564591304313	328.536338656761	975.854144258708	762.943570705704	576.093839883235	927.114399256645	642.183762490294	644.707261430990	1012.058380036911	602.874758490333	562.077681665277	1044.222451706507	522.558483565937	574.954702302751	911.774259140883	724.972259084883	366.361755467614	801.061495152647	628.124825656775	299.949153835181	857.136982608681	536.581134352686	371.533760665590	840.387146389443	468.601180151547	382.396069969305	805.457230181061	402.253617365111	373.252584081636	701.755263198131	301.900945019357	320.845675126470	729.135253953337	186.337823675190	396.073280592254	1032.382815443400	435.234950365613	583.969483918415	987.267164992982	317.833760739140	646.400706825905	1059.165101947755	236.671074895043	590.139803376684	975.032451225988	46.142149186711	558.070123128526	1133.710506950645	124.867049096176	597.283468622298	1060.536629086277	44.487948868619	630.214610169154	1261.284047831480	92.242571186904	620.718606250208	582.286878926299	40.025227330252	435.182716245352	656.482998381387	36.467296294172	355.551406666945	740.989234347051	95.197505976408	383.213532735763	868.400102207245	39.232231088531	353.514372643692	916.984952260234	1093.011895203825	173.107282494665	1165.518117538135	1060.154551194655	215.601110749671	750.816083908398	1098.585010637130	727.967676328454	750.926444947314	836.859097896124	732.121203383911	
21	5.722857142857	687.806270814092	1004.683894142632	474.161736168256	888.828708763317	1433.142170676254	312.734815507224	977.052724343538	1356.969455372328	477.940479674137	881.184782325903	1427.859596589715	645.951886949667	858.375929272070	1488.171814338319	466.821958158996	906.634102413522	939.704305899596	604.997714465667	908.314242054151	951.386675531999	330.007798440443	975.571279053090	759.460959093073	578.408664893823	923.929630117020	639.107772014173	645.849146290386	1009.018152617760	599.257415211344	563.910936922419	1039.574252002585	519.283262539248	576.296752592848	911.579325864696	723.312213757985	367.369194470695	799.907333463302	627.244646112846	301.269124611077	855.711561969631	535.180293827498	372.242953822344	838.543941998479	466.875553684312	382.987320211647	802.488044505610	401.008251105501	373.874970313854	697.324814786345	302.133921169151	321.346563524877	723.364312831695	186.020648429292	396.222168162571	1028.214410707972	431.797845680806	584.882654296914	982.322918148751	313.992135621912	645.572238629976	1055.289887742491	233.420081325822	589.849029856507	971.827750973164	44.058264372802	555.709959688424	1130.435759203897	121.684280215125	596.990614601264	1056.316431205623	42.326993394489	628.886196375419	1257.341855601204	88.135668513507	621.585078625563	575.269056677046	40.588592820511	435.100426650858	649.525979915021	36.705196821739	355.547847686617	734.169091526122	95.233941278318	383.144812056997	861.421865029219	39.076464984618	353.437510878384	916.883496964149	1091.225800617337	175.584954727223	1165.340980336765	1054.238696895585	216.746508413257	754.787947314863	1096.061516053243	730.093017397319	759.263799933687	834.367700552956	734.662666105874	
